<svg width="16" height="16" viewBox="0 0 16 16" fill="none" xmlns="http://www.w3.org/2000/svg">
<path d="M15 5.87524C15 10.2502 8.51312 13.7915 8.23687 13.9377C8.16406 13.9769 8.08268 13.9974 8 13.9974C7.91732 13.9974 7.83594 13.9769 7.76312 13.9377C7.48688 13.7915 1 10.2502 1 5.87524C1.00116 4.84789 1.40979 3.86294 2.13624 3.13648C2.86269 2.41003 3.84764 2.0014 4.875 2.00024C6.16563 2.00024 7.29562 2.55524 8 3.49337C8.70438 2.55524 9.83438 2.00024 11.125 2.00024C12.1524 2.0014 13.1373 2.41003 13.8638 3.13648C14.5902 3.86294 14.9988 4.84789 15 5.87524Z" fill="#333333"/>
</svg>
